<svg width="100" height="100" viewBox="0 0 100 100" fill="none" xmlns="http://www.w3.org/2000/svg">
  <defs>
    <linearGradient id="techGrad" x1="0" y1="0" x2="100" y2="100" gradientUnits="userSpaceOnUse">
      <stop stop-color="#0ea5e9" /> <stop offset="1" stop-color="#22d3ee" /> </linearGradient>
    
    <filter id="coreGlow" x="-20%" y="-20%" width="140%" height="140%">
      <feGaussianBlur stdDeviation="3" result="glow" />
      <feComposite in="SourceGraphic" in2="glow" operator="over" />
    </filter>
  </defs>

  <path 
    d="M50 10 L85 30 V70 L50 90 L15 70 V30 L50 10Z" 
    stroke="url(#techGrad)" 
    stroke-width="3" 
    stroke-linejoin="round"
    stroke-opacity="0.4"
  />

  <path 
    d="M35 40 L50 25 L65 40 M35 60 L50 75 L65 60" 
    stroke="url(#techGrad)" 
    stroke-width="5" 
    stroke-linecap="round"
  />

  <rect 
    x="40" y="40" width="20" height="20" rx="3" 
    fill="url(#techGrad)" 
    filter="url(#coreGlow)" 
  />

  <circle cx="50" cy="10" r="4" fill="#22d3ee" />
  <circle cx="85" cy="70" r="4" fill="#0ea5e9" />
  <circle cx="15" cy="70" r="4" fill="#0ea5e9" />
  
  <path 
    d="M50 25 V40 M50 60 V75 M35 50 H40 M60 50 H65" 
    stroke="url(#techGrad)" 
    stroke-width="1.5" 
    stroke-opacity="0.7"
  />
</svg>